<?xml version="1.0" encoding="UTF-8"?>
<!DOCTYPE svg PUBLIC "-//W3C//DTD SVG 1.1//EN" "http://www.w3.org/Graphics/SVG/1.1/DTD/svg11.dtd">
<svg xmlns="http://www.w3.org/2000/svg" xml:space="preserve" width="200px" height="225px" version="1.1" style="shape-rendering:geometricPrecision; text-rendering:geometricPrecision; image-rendering:optimizeQuality; fill-rule:evenodd; clip-rule:evenodd"
viewBox="0 0 200 225"
 xmlns:xlink="http://www.w3.org/1999/xlink"
 xmlns:xodm="http://www.corel.com/coreldraw/odm/2003">
 <defs>
  <style type="text/css">
   <![CDATA[
    .fil1 {fill:#5BC0DE}
    .fil0 {fill:white}
   ]]>
  </style>
 </defs>
 <g id="Layer_x0020_1">
  <metadata id="CorelCorpID_0Corel-Layer"/>
  <path class="fil0" d="M134.47 21.51l13.59 7.84 48.07 27.72 0 37.46 -36.69 -18.94 -2.12 14.72 38.81 18.36 0 59.26 -48.07 27.72 -42.16 24.31 3.26 -22.64 9.58 -66.54 31.36 9.68 -1.96 13.61 11.98 -6.9 0 -16.2 -39.2 -15.37 8.03 -55.74 0 0 5.52 -38.35zm-42.67 -0.54l0 0 -24.03 167 -2.24 15.52 -13.59 -7.84 -48.07 -27.72 0 -55.43 0 -1.09 36.01 -16.79 0 17.88 0 34.67 0.62 0.35 11.13 -77.33 -47.76 26.38 0 -39.5 48.07 -27.72 42.16 -24.31 -2.3 15.93z"/>
  <polygon class="fil0" points="122.94,63.96 100,223.36 70.53,206.37 88.2,83.6 "/>
  <polygon class="fil1" points="100,1.64 129.47,18.63 125.48,46.37 90.73,66.01 "/>
 </g>
</svg>
